# xmcd
#
# Track frame offsets:
#	150
#	33437
#	52262
#	71552
#	79824
#	94898
#	106358
#	131406
#	189295
#	202243
#	214716
#	229080
#	257583
#	270813
#	285108
#	294533
#
# Disc length: 4731 seconds
#
# Revision: 3
# Processed by: cddbd v1.5.2PL0 Copyright (c) Steve Scherf et al.
# Submitted via: audiograbber 1.83.01
#
DISCID=e6127910
DTITLE=Various Composers - AUDIO 2018-04 - AUDIOphile Classics - Konzert: ECHO 
DTITLE=2017 [St. Michaelis Hamburg]
DYEAR=2018
DGENRE=Classical
TTITLE0=Dietrich Buxtehude - Praeludium in D-Dur, BuxWV 1139 [Harald Vogel - Pr
TTITLE0=gel]
TTITLE1=Béla Bartók - Fünf Stücke für zwei Saxofone [Eva van Grinsven and Lars Ni
TTITLE1=ederstrasser, Saxofon]
TTITLE2=Marie Jaëll - Appel [Cora Ibsen - Klavier]
TTITLE3=Marie Jaëll - Petit Morceau 6 [Cora Ibsen - Klavier]
TTITLE4=Marie Jaëll - Poursuite [Cora Ibsen - Klavier]
TTITLE5=Ole Bull - La Melancholie [Dogma Chamber Orchestra - Henning Kraggerud]
TTITLE6=Georg Philipp Telemann - Fantasie in c [Thomas Fritzsch - Viola da Gamb
TTITLE6=a]
TTITLE7=Johann Sebastian Bach/Max Reger - Toccata D-Dur BWV 912 [Christoph Scho
TTITLE7=ener - Orgel]
TTITLE8=Henning Kraggerud - Equinox 17 [Henning Kraggerud - Violine and Clare Ham
TTITLE8=mond - Klavier]
TTITLE9=Benjamin Britten - Simple Symphony - Boisterous Bourrée [Dogma Chamber 
TTITLE9=Orchestra]
TTITLE10=Benjamin Britten - Simple Symphony - Playful Pizzicato [Dogma Chamber 
TTITLE10=Orchestra]
TTITLE11=Benjamin Britten - Simple Symphony - Sentimental Sarabande [Dogma Cham
TTITLE11=ber Orchestra]
TTITLE12=Benjamin Britten - Simple Symphony - Frolicsome Finale [Dogma Chamber 
TTITLE12=Orchestra]
TTITLE13=Arthur Lourié - Spleen [Thomas Günther - Klavier]
TTITLE14=Arthur Lourié - Formen in der Luft [Thomas Günther - Klavier]
TTITLE15=Felix Mendelssohn Bartholdy/William Thomas Best - Sinfonie Nr. 5, 3. u
TTITLE15=nd 4. Satz - arr. [Leo van Doeselaar, Orgel]
EXTD=
EXTT0=
EXTT1=
EXTT2=
EXTT3=
EXTT4=
EXTT5=
EXTT6=
EXTT7=
EXTT8=
EXTT9=
EXTT10=
EXTT11=
EXTT12=
EXTT13=
EXTT14=
EXTT15=
PLAYORDER=
